<svg xmlns="http://www.w3.org/2000/svg" width="15.809" height="16.524" viewBox="0 0 15.809 16.524"><defs><style>.a{fill:#191c52;stroke:#fec200;stroke-width:0.5px;}</style></defs><g transform="translate(26.104 68.738) rotate(180)"><path class="a" d="M93.435,114.543v-5.47l-.4-.838-.67-.235a1.073,1.073,0,0,0-1.073,1.073v5.47a3.361,3.361,0,0,0,0,6.371v2.037a1.073,1.073,0,1,0,2.146,0v-2.037a3.361,3.361,0,0,0,0-6.371Zm-1.073,4.4a1.216,1.216,0,1,1,1.216-1.216A1.217,1.217,0,0,1,92.362,118.945Z" transform="translate(-78.455 -55.536)"/><path class="a" d="M213.435,111.11v-2.037a1.073,1.073,0,0,0-2.146,0v2.037a3.361,3.361,0,0,0,0,6.371v5.47a1.073,1.073,0,1,0,2.146,0v-5.47a3.361,3.361,0,0,0,0-6.371Zm-1.073,4.4a1.216,1.216,0,1,1,1.216-1.216A1.217,1.217,0,0,1,212.362,115.511Z" transform="translate(-189.871 -55.536)"/></g></svg>