<svg xmlns="http://www.w3.org/2000/svg" xmlns:xlink="http://www.w3.org/1999/xlink" width="16" height="16" viewBox="0 0 16 16"><defs><style>.a{fill:#191c52;}.b{clip-path:url(#a);}</style><clipPath id="a"><rect class="a" width="16" height="16" transform="translate(1713 2062)"/></clipPath></defs><g class="b" transform="translate(-1713 -2062)"><g transform="translate(1713 2062)"><path class="a" d="M13.617,3.295H11.3V2.072A1.6,1.6,0,0,0,9.7.471H6.3a1.6,1.6,0,0,0-1.6,1.6V3.295H2.383A2.386,2.386,0,0,0,0,5.678v7.469a2.385,2.385,0,0,0,2.383,2.383H13.617A2.385,2.385,0,0,0,16,13.147V5.678a2.385,2.385,0,0,0-2.383-2.383ZM5.637,2.072A.665.665,0,0,1,6.3,1.408H9.7a.665.665,0,0,1,.664.664V3.295H5.637ZM.938,13.146V5.678a1.447,1.447,0,0,1,.977-1.367v10.2A1.448,1.448,0,0,1,.938,13.146Zm1.914,1.445V4.232h10.3V14.592Zm12.211-1.445a1.447,1.447,0,0,1-.977,1.367V4.311a1.448,1.448,0,0,1,.977,1.367Z"/><path class="a" d="M10.824,8H9.41V6.588a.469.469,0,0,0-.469-.469H7.059a.469.469,0,0,0-.469.469V8H5.176a.469.469,0,0,0-.469.469v1.883a.469.469,0,0,0,.469.469H6.59v1.414a.469.469,0,0,0,.469.469H8.941a.469.469,0,0,0,.469-.469V10.822h1.414a.469.469,0,0,0,.469-.469V8.471A.469.469,0,0,0,10.824,8Zm-.469,1.883H8.941a.469.469,0,0,0-.469.469v1.414H7.527V10.354a.469.469,0,0,0-.469-.469H5.645V8.939H7.059a.469.469,0,0,0,.469-.469V7.057h.945V8.471a.469.469,0,0,0,.469.469h1.414Z"/></g></g></svg>