<svg xmlns="http://www.w3.org/2000/svg" xmlns:xlink="http://www.w3.org/1999/xlink" width="16" height="16" viewBox="0 0 16 16"><defs><style>.a{fill:#191c52;}.b{clip-path:url(#a);}</style><clipPath id="a"><rect class="a" width="16" height="16" transform="translate(1713 2062)"/></clipPath></defs><g class="b" transform="translate(-1713 -2062)"><path class="a" d="M11.678,9.455a6.45,6.45,0,0,1-1.556-.611L9.681,8.6v-.18a2.165,2.165,0,0,0,.7-1.284l.142-.907a.589.589,0,0,0,.292-1.06,3.853,3.853,0,0,0,.154-.608h.066a.563.563,0,0,0,.172-1.1,3.491,3.491,0,0,0-.261-1.176,2.937,2.937,0,0,0-.775-1.064V1.148A.571.571,0,0,0,9.266.684,3.008,3.008,0,0,0,8.715.534a.571.571,0,0,0-1.046,0,3.034,3.034,0,0,0-.551.151.571.571,0,0,0-.906.463v.078A2.935,2.935,0,0,0,5.438,2.29a3.489,3.489,0,0,0-.261,1.174.563.563,0,0,0,.172,1.1H5.4a3,3,0,0,0,.142.465l.073.183L5.6,5.227a.584.584,0,0,0-.173.417.59.59,0,0,0,.531.587l.142.908a2.156,2.156,0,0,0,.612,1.2v.331L6.2,8.923a6.857,6.857,0,0,1-1.5.532,2.682,2.682,0,0,0-2.062,2.617V16a.192.192,0,0,0,.192.192H13.547A.192.192,0,0,0,13.739,16V12.072a2.681,2.681,0,0,0-2.062-2.617ZM9.412,1.148a.187.187,0,0,1,.042-.119l.012-.014a.188.188,0,0,1,.321.132v.78a.188.188,0,0,1-.188.188H9.592a.187.187,0,0,1-.18-.188ZM8,.764a.188.188,0,0,1,0-.028h0a.188.188,0,0,1,.373.029V1.928a.188.188,0,0,1-.188.188H8.184A.187.187,0,0,1,8,1.928ZM6.6,1.148a.188.188,0,0,1,.375,0v.78a.188.188,0,0,1-.188.188H6.776a.187.187,0,0,1-.18-.188ZM5.349,4.179a.179.179,0,0,1-.126-.306.177.177,0,0,1,.126-.052h.979a.192.192,0,1,0,0-.384H5.563a3.086,3.086,0,0,1,.229-1,2.54,2.54,0,0,1,.421-.672v.16a.569.569,0,0,0,.555.571h.017a.572.572,0,0,0,.572-.572v-.78a.571.571,0,0,0-.016-.134A2.657,2.657,0,0,1,7.62.935v.993a.569.569,0,0,0,.555.571h.017a.572.572,0,0,0,.572-.572V.934a2.624,2.624,0,0,1,.282.078.57.57,0,0,0-.017.135v.78a.569.569,0,0,0,.555.571H9.6a.572.572,0,0,0,.572-.572V1.766a2.54,2.54,0,0,1,.422.672,3.085,3.085,0,0,1,.228,1H7.051a.192.192,0,0,0,0,.384h3.984a.179.179,0,0,1,0,.359Zm5.231.384c-.009.046-.018.092-.029.138V4.563Zm-4.653,0v.4L5.9,4.886a2.622,2.622,0,0,1-.1-.323Zm.549,2.516L6.308,6.012a.192.192,0,0,0-.19-.162H6.012A.206.206,0,0,1,5.868,5.5a.2.2,0,0,1,.06-.041.2.2,0,0,1,.085-.018h.106a.192.192,0,0,0,.192-.192V4.563h3.856v.683a.192.192,0,0,0,.192.192h.106a.206.206,0,0,1,.145.351.2.2,0,0,1-.145.06h-.106a.192.192,0,0,0-.19.162L10,7.079a1.785,1.785,0,0,1-3.527,0ZM9.3,8.695v.771a1.5,1.5,0,0,1-2.2,0V8.643q.062.038.126.073a2.167,2.167,0,0,0,2.041,0L9.3,8.7ZM8,15.807H4.943v-.587H8Zm0-.971H4.943v-.384H8Zm0-.768H4.943V13.4H8Zm0-1.056H4.943v-.384H8Zm0-.768H4.943v-1a.192.192,0,0,0-.384,0v4.565H3.028V12.072A2.3,2.3,0,0,1,4.559,9.9v.554a.192.192,0,1,0,.384,0V9.791a7.306,7.306,0,0,0,1.225-.426v.352A2.024,2.024,0,0,0,8,11.732Zm-.968-1.368a1.63,1.63,0,0,1-.48-1.16v-.54L6.708,9.1v.441a.192.192,0,0,0,.045.124,1.888,1.888,0,0,0,2.881,0,.192.192,0,0,0,.046-.124v-.5l.152.083v.593a1.64,1.64,0,0,1-2.8,1.16Zm4.409,4.93H8.384v-.587h3.057Zm0-.971H8.384v-.384h3.057Zm0-.768H8.384V13.4h3.057Zm0-1.056H8.384v-.384h3.057Zm0-.768H8.384v-.513a2.027,2.027,0,0,0,1.832-2.015V9.325a6.744,6.744,0,0,0,1.225.466Zm1.915,3.563H11.825V9.9a2.3,2.3,0,0,1,1.531,2.173Z" transform="translate(1712.808 2061.809)"/></g></svg>