<svg xmlns="http://www.w3.org/2000/svg" xmlns:xlink="http://www.w3.org/1999/xlink" width="16" height="16" viewBox="0 0 16 16"><defs><style>.a{fill:#191c52;}.b{clip-path:url(#a);}</style><clipPath id="a"><rect class="a" width="16" height="16" transform="translate(1714 2062)"/></clipPath></defs><g class="b" transform="translate(-1714 -2062)"><g transform="translate(1714 2062)"><path class="a" d="M13.974,2.081h-.19A1.368,1.368,0,0,0,11.48.608l-.986,1.473H2.026A1.264,1.264,0,0,0,.763,3.343v8.071a1.264,1.264,0,0,0,1.262,1.262h4.9l-.37,1.556h-.8a.946.946,0,0,0-.945.945v.2H3.828a.312.312,0,1,0,0,.625h8.344a.312.312,0,0,0,0-.625h-.986v-.2a.946.946,0,0,0-.945-.945h-.8l-.37-1.556h4.9a1.264,1.264,0,0,0,1.262-1.262V3.343a1.264,1.264,0,0,0-1.262-1.262ZM9.5,7.574c-.489.342-1.4-.123-2.278.344C7.005,6.81,7.14,5.768,8.25,5.538A1.989,1.989,0,0,1,8.679,5.5l1.13.839A1.009,1.009,0,0,1,9.5,7.574Zm.315-3.35.885.656-.68.829-.8-.594ZM12,.955a.743.743,0,1,1,1.192.884L11.093,4.4,10.16,3.7ZM10.561,15.178v.2H5.439v-.2a.321.321,0,0,1,.32-.32h4.482a.321.321,0,0,1,.32.32ZM8.8,14.233H7.2l.37-1.556h.857Zm5.813-2.819a.638.638,0,0,1-.637.637H2.026a.638.638,0,0,1-.637-.637V9.951h.893a.312.312,0,1,0,0-.625H1.388V3.343a.638.638,0,0,1,.637-.637h8.05L8.627,4.872A2.135,2.135,0,0,0,7,5.558a3.2,3.2,0,0,0-.284,2.969.313.313,0,0,0,.518.145c.808-.772,1.814.07,2.716-.659A1.637,1.637,0,0,0,10.425,6.2l2.864-3.492h.685a.638.638,0,0,1,.637.637V9.326H4.781a.312.312,0,1,0,0,.625h9.83Z"/><path class="a" d="M3.471,9.332a.312.312,0,1,0,.367.245.312.312,0,0,0-.367-.245Z"/></g></g></svg>