<svg xmlns="http://www.w3.org/2000/svg" width="11.968" height="10.503" viewBox="0 0 11.968 10.503"><defs><style>.a{fill:#191c52;}</style></defs><path class="a" d="M10.919,36.25,7.283,39.955a1.814,1.814,0,0,1-2.6,0L1.05,36.25a3.713,3.713,0,0,1,0-5.174,3.557,3.557,0,0,1,4.934-.156,3.557,3.557,0,0,1,4.934.156A3.713,3.713,0,0,1,10.919,36.25ZM10.4,31.588a2.824,2.824,0,0,0-4.05,0c-.027.028-.052.062-.086.092a.376.376,0,0,1-.549,0c-.032-.033-.059-.064-.086-.092a2.824,2.824,0,0,0-4.05,0,2.977,2.977,0,0,0,0,4.148l3.635,3.705a1.081,1.081,0,0,0,1.551,0L10.4,35.737h0A2.977,2.977,0,0,0,10.4,31.588Z" transform="translate(0 -30)"/></svg>